<svg width="84" height="25" viewBox="0 0 84 25" fill="none" xmlns="http://www.w3.org/2000/svg">
<path fill-rule="evenodd" clip-rule="evenodd" d="M31.8294 1.01831V17.3432L19.0647 23.9875L31.8294 1.01831Z" fill="#3CBD0D"/>
<path fill-rule="evenodd" clip-rule="evenodd" d="M31.8307 1.01831L44.5952 23.9873L31.8307 17.3432V1.01831Z" fill="#9ED110"/>
<path fill-rule="evenodd" clip-rule="evenodd" d="M31.8294 17.3433L44.594 23.9875H19.0647L31.8294 17.3433Z" fill="#038726"/>
<path fill-rule="evenodd" clip-rule="evenodd" d="M46.7763 7.0866C46.7763 2.35134 50.9176 0.5 54.9161 0.5C57.7457 0.5 60.3325 1.17471 62.8403 2.52966L61.0036 5.8349C59.3018 5.04739 57.3299 4.31933 55.4568 4.34473C53.8586 4.36652 50.6239 4.72672 50.6239 7.02095C50.6239 11.5336 63.8133 9.47316 63.8133 17.6813C63.8133 23.0292 59.5615 24.4974 55.1368 24.4974C52.3148 24.4974 49.125 23.6412 46.5156 22.5466L48.5275 18.9268C49.0606 19.1481 49.5982 19.3453 50.1467 19.5234C51.5021 19.9632 53.3659 20.4503 54.7899 20.4503C56.3363 20.4503 59.8979 20.1905 59.8984 17.9108C59.8989 13.09 46.7763 15.2638 46.7763 7.0866Z" fill="white"/>
<path fill-rule="evenodd" clip-rule="evenodd" d="M4.12816 10.6741H7.70062L13.0653 1.02084H17.4549L11.0741 12.5028L17.4549 23.9846H13.0653L7.70076 14.3317H4.12816V23.9875H0V1.01831H4.12816V10.6741Z" fill="white"/>
<path fill-rule="evenodd" clip-rule="evenodd" d="M68.7474 23.9879H83.9992V20.3286H72.8753V14.3329H83.0479V10.6736H72.8753V4.67768H83.9992V1.01831H68.7474C68.7474 8.67493 68.7474 16.3313 68.7474 23.9879Z" fill="white"/>
</svg>
